<svg width="250" height="250" version="1.1" xmlns="http://www.w3.org/2000/svg" desc="Created with imagetracer.js version 1.2.6" ><path fill="rgb(0,0,0)" stroke="rgb(0,0,0)" stroke-width="1" opacity="0" d="M 0 0 L 250 0 L 250 250 L 0 250 L 0 0 Z M 124 9 L 113 34 L 102 52 L 102 54 L 94 64 L 94 66 L 104 62 L 121 94 L 126 111 L 129 95 L 133 86 L 141 71 L 148 62 L 156 66 L 156 64 L 141 41 L 127 11 L 124 9 Z M 26 66 Q 23 67 25 69 Q 24 71 27 70 L 27 73 L 43 95 L 58 122 L 59 122 L 59 113 L 62 112 L 89 112 L 90 113 L 99 113 L 112 118 L 114 117 L 120 121 L 121 123 L 108 118 L 100 119 L 92 124 L 90 124 L 90 128 L 100 133 L 106 134 L 98 137 L 87 137 L 86 138 L 65 138 L 59 137 L 59 129 L 58 127 L 43 155 L 24 183 L 27 184 Q 30 182 38 183 L 39 182 L 50 182 L 51 181 L 81 181 L 88 183 Q 90 184 89 180 L 82 176 L 90 159 L 105 138 L 112 134 L 113 132 L 120 128 L 121 129 L 115 133 L 107 142 Q 108 146 106 148 L 106 156 L 108 157 L 118 152 L 123 145 L 123 141 L 124 141 L 121 156 L 117 165 L 109 180 L 103 188 L 94 184 L 94 187 L 109 210 L 123 240 L 126 241 L 137 217 L 148 199 L 148 197 L 156 187 L 156 184 L 148 188 L 144 185 L 133 166 L 129 157 L 126 142 L 124 139 Q 123 133 126 131 L 127 144 L 129 149 L 138 155 L 144 157 Q 146 144 141 138 L 135 133 L 131 128 L 138 131 L 137 133 L 143 137 L 156 153 L 156 155 L 168 174 Q 168 178 166 178 Q 163 177 164 180 L 161 180 L 161 183 L 173 181 L 193 181 L 194 182 L 208 182 L 209 183 L 225 184 Q 227 183 225 182 Q 226 179 223 180 L 223 178 L 207 156 L 193 128 L 191 129 L 191 137 L 189 138 L 162 138 L 161 137 L 152 137 L 143 134 L 151 133 L 159 129 L 161 126 L 156 121 L 153 121 L 148 118 L 143 118 L 132 123 Q 130 125 129 123 L 137 117 L 138 119 L 149 114 L 164 113 L 165 112 L 186 112 L 191 113 L 191 122 L 193 123 Q 202 102 215 85 Q 214 81 217 82 L 226 67 L 224 66 Q 220 69 213 67 L 212 68 L 201 68 L 200 69 L 170 69 L 163 67 Q 159 66 161 70 L 169 75 Q 160 95 145 111 Q 146 113 144 112 L 139 116 L 144 108 L 144 94 L 142 94 L 135 99 L 132 101 L 127 108 L 126 121 L 124 119 L 123 107 Q 120 105 121 102 L 109 94 L 106 96 L 107 110 L 109 113 L 109 114 L 96 100 Q 97 97 94 98 L 94 96 L 82 77 Q 81 73 85 72 Q 87 73 86 70 L 89 70 L 89 67 L 78 69 L 58 69 L 57 68 L 43 68 L 42 67 L 26 66 Z " /><path fill="rgb(0,0,0)" stroke="rgb(0,0,0)" stroke-width="1" opacity="0" d="M 124 47 L 134 54.5 L 133 59.5 L 129 66.5 L 129 70.5 Q 125.6 74.1 125.5 81 L 121 65.5 L 116 55.5 L 124 48.5 L 124 47 Z " /><path fill="rgb(0,0,0)" stroke="rgb(0,0,0)" stroke-width="1" opacity="0" d="M 66.5 82 Q 70.9 80.5 70 83.5 L 71 86 Q 73.7 84.9 73 87.5 L 87 102.5 L 85.5 103 L 72.5 99 L 59 98 L 58 85 Q 64.1 85.8 66.5 82 Z " /><path fill="rgb(0,0,0)" stroke="rgb(0,0,0)" stroke-width="1" opacity="0" d="M 180 82 L 193 86.5 Q 189.7 90.4 191 98 L 174.5 100 L 162.5 104 L 164.5 101 L 172 94.5 L 180 84.5 L 180 82 Z " /><path fill="rgb(0,0,0)" stroke="rgb(0,0,0)" stroke-width="1" opacity="0" d="M 87.5 146 L 85.5 149 L 78 155.5 L 70 165.5 L 70 168 L 57 163.5 Q 60.3 159.6 59 152 L 70.5 151 L 87.5 146 Z " /><path fill="rgb(0,0,0)" stroke="rgb(0,0,0)" stroke-width="1" opacity="0" d="M 163.5 147 L 177.5 151 L 191 152 L 192 165 L 180 168 L 179 164 Q 176.3 165.1 177 162.5 L 163.5 147 Z " /><path fill="rgb(0,0,0)" stroke="rgb(0,0,0)" stroke-width="1" opacity="0" d="M 124.5 170 L 129 180.5 L 129 184.5 L 134 194.5 L 127 200.5 L 125.5 203 L 116 196 Q 116 189.8 120 186.5 L 121 179.5 L 124.5 170 Z " /><path fill="rgb(154,211,226)" stroke="rgb(154,211,226)" stroke-width="1" opacity="0.396078431372549" d="M 124 9 L 127 10.5 L 141 40.5 L 156 63.5 L 156 66 L 147.5 62 L 141 70.5 L 133 85.5 L 129 94.5 L 125.5 111 L 121 93.5 L 104 62 L 102 61.5 L 103.5 61 L 115 78.5 L 122 93.5 L 124 103.5 L 125.5 105 L 127 96.5 L 131 86.5 L 146 61 L 153.5 64 L 154 62.5 L 142 44.5 L 126 11 Q 123 9.8 124 13.5 L 106 48.5 L 96 63.5 L 97.5 63 L 100.5 62 L 99.5 64 L 94 66 L 94 63.5 L 102 53.5 L 102 51.5 L 113 33.5 L 124 9 Z " /><path fill="rgb(154,211,226)" stroke="rgb(154,211,226)" stroke-width="1" opacity="0.396078431372549" d="M 124.5 45 L 128 47.5 Q 127.3 49.8 129.5 49 L 136 54.5 L 129.5 70 L 129 66.5 L 133 59.5 L 134 54.5 L 124 47 L 122.5 50 L 116 55.5 L 121 65.5 L 125.5 81 L 128.5 71 L 129 72.5 L 127 77.5 L 125.5 91 L 122 72.5 L 114 54.5 L 123 47.5 L 124.5 45 Z " /><path fill="rgb(154,211,226)" stroke="rgb(154,211,226)" stroke-width="1" opacity="0.396078431372549" d="M 25.5 66 L 57 68.5 L 38.5 69 L 37.5 68 L 26.5 68 L 28 70.5 L 50 104.5 L 57.5 120 L 58 112.5 L 59.5 111 L 91.5 111 L 98 112.5 L 89.5 113 L 88.5 112 L 61.5 112 L 59 113 L 59 121.5 L 57.5 122 L 43 94.5 L 27 72.5 L 27 70 Q 24.3 71.1 25 68.5 Q 22.7 67.3 25.5 66 Z " /><path fill="rgb(154,211,226)" stroke="rgb(154,211,226)" stroke-width="1" opacity="0.396078431372549" d="M 222.5 66 L 226 67 L 217 82 Q 214 80.8 215 84.5 Q 201.5 101.5 192.5 123 L 191 121.5 L 191 113 L 185.5 112 L 164.5 112 L 163.5 113 L 153.5 113 L 153.5 112 Q 159 113.5 160.5 111 L 190.5 111 Q 193.8 112.9 192 119 Q 195 120.3 194 116.5 Q 207.1 90.6 224 68.5 L 215.5 68 L 214.5 69 L 200.5 69 L 200.5 68 L 211.5 68 L 222.5 66 Z " /><path fill="rgb(154,211,226)" stroke="rgb(154,211,226)" stroke-width="1" opacity="0.396078431372549" d="M 86.5 67 Q 90.7 65.9 89 70 L 86 70 Q 87.1 72.7 84.5 72 Q 81.5 72.5 82 76.5 L 94 95.5 L 94 98 Q 96.7 96.9 96 99.5 L 108.5 114 L 109 112.5 L 107 109.5 L 106 95.5 L 108.5 94 L 121 102 Q 120.3 105.4 123 106.5 L 124 118.5 L 125.5 121 L 127 107.5 L 131.5 101 L 134.5 99 L 141.5 94 L 144 94 L 144 107.5 L 142 112.5 L 143.5 112 Q 145.8 112.8 145 110.5 Q 159.9 95.4 169 74.5 L 161 70 Q 159.5 66.2 162.5 67 L 169 68.5 L 164 69.5 L 170 74.5 Q 160.3 98.3 143 114.5 L 144.5 115 L 147.5 114 L 147.5 115 L 137.5 119 L 136.5 117 L 129 122.5 Q 130.3 125.2 131.5 123 L 142.5 118 L 147.5 118 L 152 120.5 L 150.5 120 L 143.5 119 L 129 125 L 128 122.5 L 141 111.5 L 143 103.5 L 143 96 Q 134.2 98.4 129 105.5 L 127 120.5 L 125.5 122 L 123 120.5 L 122 107.5 L 117.5 101 L 108 96 L 108 109.5 L 114.5 117 L 122 122.5 L 120.5 125 Q 113.7 120.3 103.5 119 L 90.5 125 L 90.5 124 L 99.5 119 L 107.5 118 L 120.5 123 L 119.5 121 L 113.5 117 L 111.5 118 L 99 113.5 L 101.5 113 L 107.5 115 L 98 104.5 L 80 74.5 L 86 69.5 L 78 68.5 L 86.5 67 Z " /><path fill="rgb(154,211,226)" stroke="rgb(154,211,226)" stroke-width="1" opacity="0.396078431372549" d="M 60.5 69 L 76 69.5 L 60.5 70 L 60.5 69 Z " /><path fill="rgb(154,211,226)" stroke="rgb(154,211,226)" stroke-width="1" opacity="0.396078431372549" d="M 170.5 69 L 196 69.5 L 170.5 70 L 170.5 69 Z " /><path fill="rgb(154,211,226)" stroke="rgb(154,211,226)" stroke-width="1" opacity="0.396078431372549" d="M 69.5 80 Q 76 91.5 85.5 100 L 95 107.5 L 93.5 107 L 81 102.5 L 84.5 102 L 86.5 103 L 74 89.5 L 73 86 Q 70.3 87.1 71 84.5 L 70 82 L 67 81.5 L 69.5 80 Z " /><path fill="rgb(154,211,226)" stroke="rgb(154,211,226)" stroke-width="1" opacity="0.396078431372549" d="M 180.5 81 L 195 85.5 L 193 88.5 L 192 98.5 L 190.5 100 L 179.5 100 L 171.5 102 L 171.5 101 L 191 98 Q 189.7 90.4 193 86.5 L 180 82 L 180 84.5 L 165.5 101 L 163 102.5 L 165.5 103 L 169.5 102 L 169.5 103 Q 161.4 103.9 156.5 108 L 160.5 103 L 173 91.5 L 180.5 81 Z " /><path fill="rgb(154,211,226)" stroke="rgb(154,211,226)" stroke-width="1" opacity="0.396078431372549" d="M 65.5 82 L 64.5 84 L 58 85 L 59 96.5 L 58 96.5 L 58 91.5 L 56 84 L 65.5 82 Z " /><path fill="rgb(154,211,226)" stroke="rgb(154,211,226)" stroke-width="1" opacity="0.396078431372549" d="M 59.5 98 L 72.5 99 L 80 101.5 L 77.5 102 Q 72.1 98.9 62.5 100 L 59.5 99 L 59.5 98 Z " /><path fill="rgb(154,211,226)" stroke="rgb(154,211,226)" stroke-width="1" opacity="0.396078431372549" d="M 149.5 113 L 152 113.5 L 149.5 114 L 149.5 113 Z " /><path fill="rgb(154,211,226)" stroke="rgb(154,211,226)" stroke-width="1" opacity="0.396078431372549" d="M 153.5 121 L 155.5 121 L 161 125.5 L 158.5 129 L 150.5 133 L 143 133.5 L 151 136.5 L 148.5 137 L 142.5 135 L 144.5 138 L 147 139.5 Q 160.8 155.2 170 175.5 L 164 180.5 L 172 181.5 L 161 183 L 161 180 L 164 180 Q 162.9 177.3 165.5 178 Q 168.5 177.5 168 173.5 L 156 154.5 L 156 152.5 L 142.5 137 Q 140.3 136.3 141 138.5 L 144 144.5 L 144 157 L 137.5 155 L 129 148.5 L 127 143.5 L 125.5 131 Q 123.1 133.1 124 138.5 L 126 141.5 L 129 156.5 L 133 165.5 L 144 184.5 L 147.5 188 L 156 184 L 156 186.5 L 148 196.5 L 148 198.5 L 137 216.5 L 126 241 L 123 239.5 L 109 209.5 L 94 186.5 L 94 184 L 102.5 188 L 109 179.5 L 117 164.5 L 121 155.5 L 123 145.5 L 122 145.5 L 117.5 152 L 107.5 157 L 106 155.5 L 106 147.5 Q 108.3 146.3 107 141.5 L 114.5 133 L 121 128.5 L 119.5 128 L 113 131.5 L 111.5 134 L 105 138 L 90 158.5 L 82 175.5 L 89 180 Q 90.5 183.8 87.5 183 L 81 181.5 L 86 180.5 L 80 175.5 Q 89.7 151.7 107 135.5 L 105.5 135 L 102.5 136 L 102.5 135 L 106 133.5 L 99.5 133 L 90 128 L 90.5 126 L 101.5 132 L 108.5 132 L 120.5 127 L 122 129.5 L 110 138.5 L 108 142.5 Q 109.4 152.1 107 156 Q 115.6 153.3 121 146.5 L 123 138.5 L 123 130 L 127 130 L 127 136.5 Q 129.5 138 128 143.5 L 133.5 151 L 143 156 L 142 141.5 L 136.5 135 L 128 130 L 129.5 127 L 141.5 132 L 148.5 132 L 160 125.5 Q 154.1 124.4 153.5 121 Z M 132 129 Q 134 134 140 136 L 137 133 L 138 132 L 132 129 Z M 124 140 L 123 145 L 124 145 L 124 140 Z M 125 145 L 121 159 Q 114 175 104 189 L 98 187 L 96 187 L 108 206 L 124 238 Q 123 240 126 239 Q 137 210 154 188 L 154 186 L 147 189 Q 137 177 130 162 L 126 151 L 126 147 L 125 145 Z " /><path fill="rgb(154,211,226)" stroke="rgb(154,211,226)" stroke-width="1" opacity="0.396078431372549" d="M 57.5 127 L 59 128.5 L 59 137 L 64.5 138 L 85.5 138 L 86.5 137 L 96.5 137 L 96.5 138 Q 91 136.5 89.5 139 L 59.5 139 L 58 137.5 L 58 131 Q 55 129.8 56 133.5 Q 42.9 159.4 26 181.5 L 34.5 182 L 35.5 181 L 49.5 181 L 49.5 182 L 38.5 182 L 37.5 183 Q 30 181.5 26.5 184 L 24 183 L 43 154.5 L 57.5 127 Z " /><path fill="rgb(154,211,226)" stroke="rgb(154,211,226)" stroke-width="1" opacity="0.396078431372549" d="M 191 128 L 194 129.5 L 200 143.5 L 203 146.5 L 211 161.5 L 215 165.5 L 215 167.5 L 223 177.5 L 223 180 Q 225.7 178.9 225 181.5 Q 227.2 182.8 224.5 184 L 193 181.5 L 211.5 181 L 212.5 182 L 223.5 182 L 222 179.5 L 200 145.5 L 192.5 130 L 192 137.5 L 190.5 139 L 158.5 139 L 152 137.5 L 160.5 137 L 161.5 138 L 188.5 138 L 191 137 L 191 128 Z " /><path fill="rgb(154,211,226)" stroke="rgb(154,211,226)" stroke-width="1" opacity="0.396078431372549" d="M 98.5 136 L 101 136.5 L 98.5 137 L 98.5 136 Z " /><path fill="rgb(154,211,226)" stroke="rgb(154,211,226)" stroke-width="1" opacity="0.396078431372549" d="M 93.5 142 L 89.5 147 L 77 158.5 L 69.5 169 L 55 164.5 L 57 161.5 L 58 151.5 L 59.5 150 L 74.5 149 L 74.5 150 L 59 152 Q 60.3 159.6 57 163.5 L 70 168 L 70 165.5 L 84.5 149 L 87 147.5 L 84.5 147 L 80.5 148 L 80.5 147 Q 88.6 146.1 93.5 142 Z " /><path fill="rgb(154,211,226)" stroke="rgb(154,211,226)" stroke-width="1" opacity="0.396078431372549" d="M 155.5 142 L 160.5 145 L 173.5 149 L 187.5 150 L 191 151.5 L 184.5 152 L 163.5 147 L 176 160.5 L 177 164 Q 179.7 162.9 179 165.5 L 180 168 L 192 165 L 191 153.5 L 192 153.5 L 192 158.5 L 194 166 Q 185.2 165.5 180.5 170 Q 174 158.5 164.5 150 Q 158 146.9 155.5 142 Z " /><path fill="rgb(154,211,226)" stroke="rgb(154,211,226)" stroke-width="1" opacity="0.396078431372549" d="M 76.5 148 L 79 148.5 L 76.5 149 L 76.5 148 Z " /><path fill="rgb(154,211,226)" stroke="rgb(154,211,226)" stroke-width="1" opacity="0.396078431372549" d="M 124.5 159 L 129 179.5 L 128 179.5 L 124.5 170 L 121.5 179 L 121 177.5 L 123 172.5 L 124.5 159 Z " /><path fill="rgb(154,211,226)" stroke="rgb(154,211,226)" stroke-width="1" opacity="0.396078431372549" d="M 53.5 180 L 80 180.5 L 53.5 181 L 53.5 180 Z " /><path fill="rgb(154,211,226)" stroke="rgb(154,211,226)" stroke-width="1" opacity="0.396078431372549" d="M 120.5 180 L 121 183.5 L 117 190.5 L 116 196 L 125.5 203 L 128.5 199 L 134 194.5 L 129 184.5 L 129 181.5 L 130 181.5 L 136 195.5 L 126 203.5 Q 126.8 205.8 124.5 205 L 122 201 L 114 195.5 L 120.5 180 Z " /><path fill="rgb(154,211,226)" stroke="rgb(154,211,226)" stroke-width="1" opacity="0.396078431372549" d="M 173.5 180 L 191 180.5 L 173.5 181 L 173.5 180 Z " /><path fill="rgb(158,213,226)" stroke="rgb(158,213,226)" stroke-width="1" opacity="0.996078431372549" d="M 124 11 L 126 11.5 L 124 12.5 L 124 11 Z " /><path fill="rgb(158,213,226)" stroke="rgb(158,213,226)" stroke-width="1" opacity="0.996078431372549" d="M 126.5 13 L 128 15.5 L 126 14.5 L 126.5 13 Z " /><path fill="rgb(158,213,226)" stroke="rgb(158,213,226)" stroke-width="1" opacity="0.996078431372549" d="M 120.5 20 L 121 21.5 L 119 22.5 L 120.5 20 Z " /><path fill="rgb(158,213,226)" stroke="rgb(158,213,226)" stroke-width="1" opacity="0.996078431372549" d="M 131.5 24 L 134 29.5 L 133 29.5 L 131.5 24 Z " /><path fill="rgb(158,213,226)" stroke="rgb(158,213,226)" stroke-width="1" opacity="0.996078431372549" d="M 116.5 28 L 117 29.5 L 114.5 33 L 115 31.5 L 116.5 28 Z " /><path fill="rgb(158,213,226)" stroke="rgb(158,213,226)" stroke-width="1" opacity="0.996078431372549" d="M 137.5 35 L 140 39.5 L 138 38.5 L 137.5 35 Z " /><path fill="rgb(158,213,226)" stroke="rgb(158,213,226)" stroke-width="1" opacity="0.996078431372549" d="M 112.5 36 L 113 37.5 L 111 38.5 L 112.5 36 Z " /><path fill="rgb(158,213,226)" stroke="rgb(158,213,226)" stroke-width="1" opacity="0.996078431372549" d="M 110.5 40 L 109.5 42 L 110.5 40 Z " /><path fill="rgb(158,213,226)" stroke="rgb(158,213,226)" stroke-width="1" opacity="0.996078431372549" d="M 108.5 43 L 109 44.5 L 107 45.5 L 108.5 43 Z " /><path fill="rgb(158,213,226)" stroke="rgb(158,213,226)" stroke-width="1" opacity="0.996078431372549" d="M 141.5 43 L 143 45.5 L 141 44.5 L 141.5 43 Z " /><path fill="rgb(158,213,226)" stroke="rgb(158,213,226)" stroke-width="1" opacity="0.996078431372549" d="M 124.5 44 L 128 46.5 L 125.5 45 L 124.5 44 Z " /><path fill="rgb(158,213,226)" stroke="rgb(158,213,226)" stroke-width="1" opacity="0.996078431372549" d="M 105.5 49 L 105 50.5 L 103.5 53 L 104 51.5 L 105.5 49 Z " /><path fill="rgb(158,213,226)" stroke="rgb(158,213,226)" stroke-width="1" opacity="0.996078431372549" d="M 130.5 49 L 132.5 52 L 130.5 49 Z " /><path fill="rgb(158,213,226)" stroke="rgb(158,213,226)" stroke-width="1" opacity="0.996078431372549" d="M 145.5 50 L 147 52.5 L 145 51.5 L 145.5 50 Z " /><path fill="rgb(158,213,226)" stroke="rgb(158,213,226)" stroke-width="1" opacity="0.996078431372549" d="M 117.5 51 L 115.5 54 L 114 54.5 L 117 59.5 L 115 58.5 L 113 54.5 L 117.5 51 Z " /><path fill="rgb(158,213,226)" stroke="rgb(158,213,226)" stroke-width="1" opacity="0.996078431372549" d="M 135.5 53 L 136.5 55 L 135.5 53 Z " /><path fill="rgb(158,213,226)" stroke="rgb(158,213,226)" stroke-width="1" opacity="0.996078431372549" d="M 102.5 54 L 101.5 56 L 102.5 54 Z " /><path fill="rgb(158,213,226)" stroke="rgb(158,213,226)" stroke-width="1" opacity="0.996078431372549" d="M 148.5 55 L 152 59.5 L 149 57.5 L 148.5 55 Z " /><path fill="rgb(158,213,226)" stroke="rgb(158,213,226)" stroke-width="1" opacity="0.996078431372549" d="M 135.5 56 L 136 57.5 L 134 58.5 L 135.5 56 Z " /><path fill="rgb(158,213,226)" stroke="rgb(158,213,226)" stroke-width="1" opacity="0.996078431372549" d="M 100.5 57 L 100 58.5 L 98 61.5 L 98.5 63 L 97 62.5 L 96.5 64 L 96 62.5 L 100.5 57 Z " /><path fill="rgb(158,213,226)" stroke="rgb(158,213,226)" stroke-width="1" opacity="0.996078431372549" d="M 102.5 60 L 104 60.5 L 100.5 62 L 100.5 61 L 102.5 60 Z " /><path fill="rgb(158,213,226)" stroke="rgb(158,213,226)" stroke-width="1" opacity="0.996078431372549" d="M 146.5 60 L 148 60.5 L 146 61 L 143.5 65 L 145 62.5 L 146.5 60 Z " /><path fill="rgb(158,213,226)" stroke="rgb(158,213,226)" stroke-width="1" opacity="0.996078431372549" d="M 117.5 61 L 120 67.5 L 119 67.5 Q 116 65 117.5 61 Z " /><path fill="rgb(158,213,226)" stroke="rgb(158,213,226)" stroke-width="1" opacity="0.996078431372549" d="M 152.5 61 L 154 63.5 L 153 63.5 L 152.5 62 L 151 62.5 L 152.5 61 Z " /><path fill="rgb(158,213,226)" stroke="rgb(158,213,226)" stroke-width="1" opacity="0.996078431372549" d="M 132.5 62 L 133 63.5 L 131.5 66 L 131 64.5 L 132.5 62 Z " /><path fill="rgb(158,213,226)" stroke="rgb(158,213,226)" stroke-width="1" opacity="0.996078431372549" d="M 142.5 66 L 142 67.5 L 140.5 70 L 141 68.5 L 142.5 66 Z " /><path fill="rgb(158,213,226)" stroke="rgb(158,213,226)" stroke-width="1" opacity="0.996078431372549" d="M 31.5 68 L 34 68.5 L 31.5 69 L 31.5 68 Z " /><path fill="rgb(158,213,226)" stroke="rgb(158,213,226)" stroke-width="1" opacity="0.996078431372549" d="M 35.5 68 L 38 68.5 L 35.5 69 L 35.5 68 Z " /><path fill="rgb(158,213,226)" stroke="rgb(158,213,226)" stroke-width="1" opacity="0.996078431372549" d="M 217.5 68 L 222 68.5 L 217.5 69 L 217.5 68 Z " /><path fill="rgb(158,213,226)" stroke="rgb(158,213,226)" stroke-width="1" opacity="0.996078431372549" d="M 43.5 69 L 46 69.5 L 43.5 70 L 43.5 69 Z " /><path fill="rgb(158,213,226)" stroke="rgb(158,213,226)" stroke-width="1" opacity="0.996078431372549" d="M 50.5 69 L 54 69.5 L 50.5 70 L 50.5 69 Z " /><path fill="rgb(158,213,226)" stroke="rgb(158,213,226)" stroke-width="1" opacity="0.996078431372549" d="M 55.5 69 L 60 69.5 L 55.5 70 L 55.5 69 Z " /><path fill="rgb(158,213,226)" stroke="rgb(158,213,226)" stroke-width="1" opacity="0.996078431372549" d="M 78.5 69 L 81 69.5 L 78.5 70 L 78.5 69 Z " /><path fill="rgb(158,213,226)" stroke="rgb(158,213,226)" stroke-width="1" opacity="0.996078431372549" d="M 82.5 69 L 86 69.5 L 80.5 74 L 82.5 71 L 84 70.5 L 82.5 69 Z " /><path fill="rgb(158,213,226)" stroke="rgb(158,213,226)" stroke-width="1" opacity="0.996078431372549" d="M 109.5 69 L 113 73.5 L 111 72.5 L 109.5 69 Z " /><path fill="rgb(158,213,226)" stroke="rgb(158,213,226)" stroke-width="1" opacity="0.996078431372549" d="M 165 69 L 170 69.5 L 166 70.5 L 169 72.5 L 167.5 72 L 165 70.5 L 165 69 Z " /><path fill="rgb(158,213,226)" stroke="rgb(158,213,226)" stroke-width="1" opacity="0.996078431372549" d="M 196.5 69 L 204 69.5 L 196.5 70 L 196.5 69 Z " /><path fill="rgb(158,213,226)" stroke="rgb(158,213,226)" stroke-width="1" opacity="0.996078431372549" d="M 208.5 69 L 212 69.5 L 208.5 70 L 208.5 69 Z " /><path fill="rgb(158,213,226)" stroke="rgb(158,213,226)" stroke-width="1" opacity="0.996078431372549" d="M 222.5 70 L 221 72.5 L 215.5 81 L 215 79.5 L 222.5 70 Z " /><path fill="rgb(158,213,226)" stroke="rgb(158,213,226)" stroke-width="1" opacity="0.996078431372549" d="M 28.5 71 L 30.5 74 L 28.5 71 Z " /><path fill="rgb(158,213,226)" stroke="rgb(158,213,226)" stroke-width="1" opacity="0.996078431372549" d="M 121.5 72 L 123 78.5 L 122 78.5 L 121.5 72 Z " /><path fill="rgb(158,213,226)" stroke="rgb(158,213,226)" stroke-width="1" opacity="0.996078431372549" d="M 138.5 72 L 138 73.5 L 137.5 75 L 137 73.5 L 138.5 72 Z " /><path fill="rgb(158,213,226)" stroke="rgb(158,213,226)" stroke-width="1" opacity="0.996078431372549" d="M 128.5 73 L 129 76.5 L 127.5 79 L 127 77.5 L 128.5 73 Z " /><path fill="rgb(158,213,226)" stroke="rgb(158,213,226)" stroke-width="1" opacity="0.996078431372549" d="M 170.5 74 L 170 75.5 L 169.5 77 L 169 75.5 L 170.5 74 Z " /><path fill="rgb(158,213,226)" stroke="rgb(158,213,226)" stroke-width="1" opacity="0.996078431372549" d="M 113.5 75 L 117 81.5 L 116 81.5 L 113 76.5 L 113.5 75 Z " /><path fill="rgb(158,213,226)" stroke="rgb(158,213,226)" stroke-width="1" opacity="0.996078431372549" d="M 33.5 78 L 37 82.5 L 34 80.5 L 33.5 78 Z " /><path fill="rgb(158,213,226)" stroke="rgb(158,213,226)" stroke-width="1" opacity="0.996078431372549" d="M 135.5 78 L 134.5 80 L 135.5 78 Z " /><path fill="rgb(158,213,226)" stroke="rgb(158,213,226)" stroke-width="1" opacity="0.996078431372549" d="M 167.5 79 L 168 80.5 L 164.5 86 L 165 84.5 L 167.5 79 Z " /><path fill="rgb(158,213,226)" stroke="rgb(158,213,226)" stroke-width="1" opacity="0.996078431372549" d="M 67.5 80 L 66.5 82 L 67.5 80 Z " /><path fill="rgb(158,213,226)" stroke="rgb(158,213,226)" stroke-width="1" opacity="0.996078431372549" d="M 180.5 80 L 179 82.5 L 169.5 95 L 172 91.5 L 180.5 80 Z " /><path fill="rgb(158,213,226)" stroke="rgb(158,213,226)" stroke-width="1" opacity="0.996078431372549" d="M 70.5 81 L 75 86.5 L 72 84.5 L 70.5 81 Z " /><path fill="rgb(158,213,226)" stroke="rgb(158,213,226)" stroke-width="1" opacity="0.996078431372549" d="M 62.5 82 L 65 82.5 L 62.5 83 L 62.5 82 Z " /><path fill="rgb(158,213,226)" stroke="rgb(158,213,226)" stroke-width="1" opacity="0.996078431372549" d="M 133.5 82 L 132.5 84 L 133.5 82 Z " /><path fill="rgb(158,213,226)" stroke="rgb(158,213,226)" stroke-width="1" opacity="0.996078431372549" d="M 126.5 83 L 127 85.5 L 126 85.5 L 126.5 83 Z " /><path fill="rgb(158,213,226)" stroke="rgb(158,213,226)" stroke-width="1" opacity="0.996078431372549" d="M 213.5 83 L 212.5 85 L 213.5 83 Z " /><path fill="rgb(158,213,226)" stroke="rgb(158,213,226)" stroke-width="1" opacity="0.996078431372549" d="M 37.5 84 L 41 88.5 L 38 86.5 L 37.5 84 Z " /><path fill="rgb(158,213,226)" stroke="rgb(158,213,226)" stroke-width="1" opacity="0.996078431372549" d="M 55.5 84 L 56 86.5 L 55 86.5 L 55.5 84 Z " /><path fill="rgb(158,213,226)" stroke="rgb(158,213,226)" stroke-width="1" opacity="0.996078431372549" d="M 86.5 86 L 88 88.5 L 86 87.5 L 86.5 86 Z " /><path fill="rgb(158,213,226)" stroke="rgb(158,213,226)" stroke-width="1" opacity="0.996078431372549" d="M 119.5 86 L 121 89.5 L 120 89.5 L 119.5 86 Z " /><path fill="rgb(158,213,226)" stroke="rgb(158,213,226)" stroke-width="1" opacity="0.996078431372549" d="M 194.5 86 L 195 87.5 L 193.5 90 L 193 88.5 L 194.5 86 Z " /><path fill="rgb(158,213,226)" stroke="rgb(158,213,226)" stroke-width="1" opacity="0.996078431372549" d="M 124.5 87 L 126 92.5 L 125 92.5 L 124.5 87 Z " /><path fill="rgb(158,213,226)" stroke="rgb(158,213,226)" stroke-width="1" opacity="0.996078431372549" d="M 163.5 87 L 164 88.5 L 162 89.5 L 163.5 87 Z " /><path fill="rgb(158,213,226)" stroke="rgb(158,213,226)" stroke-width="1" opacity="0.996078431372549" d="M 75.5 88 L 77.5 91 L 75.5 88 Z " /><path fill="rgb(158,213,226)" stroke="rgb(158,213,226)" stroke-width="1" opacity="0.996078431372549" d="M 209.5 89 L 209 90.5 L 207.5 93 L 207 91.5 L 209.5 89 Z " /><path fill="rgb(158,213,226)" stroke="rgb(158,213,226)" stroke-width="1" opacity="0.996078431372549" d="M 41.5 90 L 43 92.5 L 42 92.5 L 41.5 90 Z " /><path fill="rgb(158,213,226)" stroke="rgb(158,213,226)" stroke-width="1" opacity="0.996078431372549" d="M 90.5 93 L 92 95.5 L 90 94.5 L 90.5 93 Z " /><path fill="rgb(158,213,226)" stroke="rgb(158,213,226)" stroke-width="1" opacity="0.996078431372549" d="M 44.5 94 L 46 96.5 L 44 95.5 L 44.5 94 Z " /><path fill="rgb(158,213,226)" stroke="rgb(158,213,226)" stroke-width="1" opacity="0.996078431372549" d="M 206.5 94 L 205 96.5 L 202.5 101 L 203 99.5 L 206.5 94 Z " /><path fill="rgb(158,213,226)" stroke="rgb(158,213,226)" stroke-width="1" opacity="0.996078431372549" d="M 158.5 95 L 159 96.5 L 156 98.5 L 158.5 95 Z " /><path fill="rgb(158,213,226)" stroke="rgb(158,213,226)" stroke-width="1" opacity="0.996078431372549" d="M 108.5 96 L 111 97.5 L 109.5 97 L 108.5 96 Z " /><path fill="rgb(158,213,226)" stroke="rgb(158,213,226)" stroke-width="1" opacity="0.996078431372549" d="M 167.5 96 L 161.5 103 L 157 106.5 L 157.5 108 L 156 107.5 Q 156.8 110.1 153.5 109 L 152 109.5 L 153.5 107 L 156.5 106 L 167.5 96 Z " /><path fill="rgb(158,213,226)" stroke="rgb(158,213,226)" stroke-width="1" opacity="0.996078431372549" d="M 58.5 98 L 62 99.5 L 58 100 L 58.5 98 Z " /><path fill="rgb(158,213,226)" stroke="rgb(158,213,226)" stroke-width="1" opacity="0.996078431372549" d="M 84.5 98 Q 86.8 97.3 86 99.5 L 84.5 98 Z " /><path fill="rgb(158,213,226)" stroke="rgb(158,213,226)" stroke-width="1" opacity="0.996078431372549" d="M 93.5 98 L 98 103.5 L 94 100.5 L 93.5 98 Z " /><path fill="rgb(158,213,226)" stroke="rgb(158,213,226)" stroke-width="1" opacity="0.996078431372549" d="M 136.5 99 L 135.5 101 L 129.5 106 L 134.5 100 L 136.5 99 Z " /><path fill="rgb(158,213,226)" stroke="rgb(158,213,226)" stroke-width="1" opacity="0.996078431372549" d="M 69.5 100 L 72 100.5 L 69.5 101 L 69.5 100 Z " /><path fill="rgb(158,213,226)" stroke="rgb(158,213,226)" stroke-width="1" opacity="0.996078431372549" d="M 87.5 100 L 90.5 104 L 87.5 100 Z " /><path fill="rgb(158,213,226)" stroke="rgb(158,213,226)" stroke-width="1" opacity="0.996078431372549" d="M 124 100 Q 126.7 98.9 126 101.5 L 126 103.5 L 125.5 105 L 124 100 Z " /><path fill="rgb(158,213,226)" stroke="rgb(158,213,226)" stroke-width="1" opacity="0.996078431372549" d="M 142.5 100 L 143 103.5 L 142 103.5 L 142.5 100 Z " /><path fill="rgb(158,213,226)" stroke="rgb(158,213,226)" stroke-width="1" opacity="0.996078431372549" d="M 155.5 100 L 154.5 102 L 155.5 100 Z " /><path fill="rgb(158,213,226)" stroke="rgb(158,213,226)" stroke-width="1" opacity="0.996078431372549" d="M 179.5 100 L 183 100.5 L 179.5 101 L 179.5 100 Z " /><path fill="rgb(158,213,226)" stroke="rgb(158,213,226)" stroke-width="1" opacity="0.996078431372549" d="M 117.5 101 L 118.5 103 L 117.5 101 Z " /><path fill="rgb(158,213,226)" stroke="rgb(158,213,226)" stroke-width="1" opacity="0.996078431372549" d="M 174.5 101 L 177 101.5 L 174.5 102 L 174.5 101 Z " /><path fill="rgb(158,213,226)" stroke="rgb(158,213,226)" stroke-width="1" opacity="0.996078431372549" d="M 48.5 102 L 51 105.5 L 50 105.5 L 48.5 102 Z " /><path fill="rgb(158,213,226)" stroke="rgb(158,213,226)" stroke-width="1" opacity="0.996078431372549" d="M 201.5 102 L 201 103.5 L 198.5 108 L 199 106.5 L 201.5 102 Z " /><path fill="rgb(158,213,226)" stroke="rgb(158,213,226)" stroke-width="1" opacity="0.996078431372549" d="M 108.5 103 L 109 108.5 L 108 108.5 L 108.5 103 Z " /><path fill="rgb(158,213,226)" stroke="rgb(158,213,226)" stroke-width="1" opacity="0.996078431372549" d="M 153.5 103 L 152 105.5 L 149.5 109 L 150 107.5 L 153.5 103 Z " /><path fill="rgb(158,213,226)" stroke="rgb(158,213,226)" stroke-width="1" opacity="0.996078431372549" d="M 167.5 103 L 169 103.5 L 164.5 105 L 164.5 104 L 167.5 103 Z " /><path fill="rgb(158,213,226)" stroke="rgb(158,213,226)" stroke-width="1" opacity="0.996078431372549" d="M 92.5 104 L 98 108.5 L 94.5 109 L 90 106.5 L 91.5 106 L 93.5 107 L 92.5 104 Z " /><path fill="rgb(158,213,226)" stroke="rgb(158,213,226)" stroke-width="1" opacity="0.996078431372549" d="M 119.5 104 L 120.5 106 L 119.5 104 Z " /><path fill="rgb(158,213,226)" stroke="rgb(158,213,226)" stroke-width="1" opacity="0.996078431372549" d="M 98.5 105 L 106 112.5 L 104.5 114 L 102 113.5 L 104 112.5 L 98.5 105 Z " /><path fill="rgb(158,213,226)" stroke="rgb(158,213,226)" stroke-width="1" opacity="0.996078431372549" d="M 51.5 107 L 55 113.5 L 54 113.5 L 51.5 107 Z " /><path fill="rgb(158,213,226)" stroke="rgb(158,213,226)" stroke-width="1" opacity="0.996078431372549" d="M 121.5 107 L 122 109.5 L 121 109.5 L 121.5 107 Z " /><path fill="rgb(158,213,226)" stroke="rgb(158,213,226)" stroke-width="1" opacity="0.996078431372549" d="M 128.5 107 L 129 112.5 L 128 112.5 L 128.5 107 Z " /><path fill="rgb(158,213,226)" stroke="rgb(158,213,226)" stroke-width="1" opacity="0.996078431372549" d="M 141.5 107 L 142 109.5 L 141 109.5 L 141.5 107 Z " /><path fill="rgb(158,213,226)" stroke="rgb(158,213,226)" stroke-width="1" opacity="0.996078431372549" d="M 197.5 109 L 197 110.5 L 195.5 114 L 195 112.5 L 197.5 109 Z " /><path fill="rgb(158,213,226)" stroke="rgb(158,213,226)" stroke-width="1" opacity="0.996078431372549" d="M 64.5 110 L 80 110.5 L 64.5 111 L 64.5 110 Z " /><path fill="rgb(158,213,226)" stroke="rgb(158,213,226)" stroke-width="1" opacity="0.996078431372549" d="M 81.5 110 L 84 110.5 L 81.5 111 L 81.5 110 Z " /><path fill="rgb(158,213,226)" stroke="rgb(158,213,226)" stroke-width="1" opacity="0.996078431372549" d="M 85.5 110 L 89 110.5 L 85.5 111 L 85.5 110 Z " /><path fill="rgb(158,213,226)" stroke="rgb(158,213,226)" stroke-width="1" opacity="0.996078431372549" d="M 147.5 110 L 146.5 113 L 148 113.5 L 146.5 114 Q 143 112 147.5 110 Z " /><path fill="rgb(158,213,226)" stroke="rgb(158,213,226)" stroke-width="1" opacity="0.996078431372549" d="M 164.5 110 L 167 110.5 L 164.5 111 L 164.5 110 Z " /><path fill="rgb(158,213,226)" stroke="rgb(158,213,226)" stroke-width="1" opacity="0.996078431372549" d="M 168.5 110 L 173 110.5 L 168.5 111 L 168.5 110 Z " /><path fill="rgb(158,213,226)" stroke="rgb(158,213,226)" stroke-width="1" opacity="0.996078431372549" d="M 174.5 110 L 185 110.5 L 174.5 111 L 174.5 110 Z " /><path fill="rgb(158,213,226)" stroke="rgb(158,213,226)" stroke-width="1" opacity="0.996078431372549" d="M 92.5 111 L 96 111.5 L 92.5 112 L 92.5 111 Z " /><path fill="rgb(158,213,226)" stroke="rgb(158,213,226)" stroke-width="1" opacity="0.996078431372549" d="M 109.5 111 L 111.5 114 L 109.5 111 Z " /><path fill="rgb(158,213,226)" stroke="rgb(158,213,226)" stroke-width="1" opacity="0.996078431372549" d="M 156.5 111 L 160 111.5 L 156.5 112 L 156.5 111 Z " /><path fill="rgb(158,213,226)" stroke="rgb(158,213,226)" stroke-width="1" opacity="0.996078431372549" d="M 122.5 113 L 123 117.5 L 122 117.5 L 122.5 113 Z " /><path fill="rgb(158,213,226)" stroke="rgb(158,213,226)" stroke-width="1" opacity="0.996078431372549" d="M 138.5 113 L 134.5 118 L 131.5 120 L 133.5 117 L 138.5 113 Z " /><path fill="rgb(158,213,226)" stroke="rgb(158,213,226)" stroke-width="1" opacity="0.996078431372549" d="M 113.5 115 L 114.5 117 L 113.5 115 Z " /><path fill="rgb(158,213,226)" stroke="rgb(158,213,226)" stroke-width="1" opacity="0.996078431372549" d="M 192.5 115 L 194 119 L 192 118.5 L 192 116.5 L 192.5 115 Z " /><path fill="rgb(158,213,226)" stroke="rgb(158,213,226)" stroke-width="1" opacity="0.996078431372549" d="M 56.5 117 Q 59.1 116.2 58 119.5 L 57 119.5 L 56.5 117 Z " /><path fill="rgb(158,213,226)" stroke="rgb(158,213,226)" stroke-width="1" opacity="0.996078431372549" d="M 116.5 117 L 117.5 119 L 116.5 117 Z " /><path fill="rgb(158,213,226)" stroke="rgb(158,213,226)" stroke-width="1" opacity="0.996078431372549" d="M 127.5 117 L 128.5 121 L 130 120.5 Q 128 125 126 121.5 L 127.5 117 Z " /><path fill="rgb(158,213,226)" stroke="rgb(158,213,226)" stroke-width="1" opacity="0.996078431372549" d="M 103.5 119 L 107 119.5 L 103.5 120 L 103.5 119 Z " /><path fill="rgb(158,213,226)" stroke="rgb(158,213,226)" stroke-width="1" opacity="0.996078431372549" d="M 119.5 119 L 124 121.5 L 122.5 123 L 119.5 119 Z " /><path fill="rgb(158,213,226)" stroke="rgb(158,213,226)" stroke-width="1" opacity="0.996078431372549" d="M 143.5 119 L 147 119.5 L 141.5 121 L 141.5 120 L 143.5 119 Z " /><path fill="rgb(158,213,226)" stroke="rgb(158,213,226)" stroke-width="1" opacity="0.996078431372549" d="M 112.5 121 L 117 123.5 L 115.5 124 L 112.5 121 Z " /><path fill="rgb(158,213,226)" stroke="rgb(158,213,226)" stroke-width="1" opacity="0.996078431372549" d="M 152.5 121 L 153.5 123 L 152.5 121 Z " /><path fill="rgb(158,213,226)" stroke="rgb(158,213,226)" stroke-width="1" opacity="0.996078431372549" d="M 96.5 122 L 95.5 124 L 92.5 125 L 92.5 124 L 96.5 122 Z " /><path fill="rgb(158,213,226)" stroke="rgb(158,213,226)" stroke-width="1" opacity="0.996078431372549" d="M 133.5 123 L 135 123.5 L 131.5 125 L 131.5 124 L 133.5 123 Z " /><path fill="rgb(158,213,226)" stroke="rgb(158,213,226)" stroke-width="1" opacity="0.996078431372549" d="M 155.5 123 L 158 124.5 L 156.5 125 L 155.5 123 Z " /><path fill="rgb(158,213,226)" stroke="rgb(158,213,226)" stroke-width="1" opacity="0.996078431372549" d="M 90.5 125 L 94 127.5 L 92.5 127 L 90.5 125 Z " /><path fill="rgb(158,213,226)" stroke="rgb(158,213,226)" stroke-width="1" opacity="0.996078431372549" d="M 119.5 126 L 122 127.5 L 120.5 127 L 119.5 126 Z " /><path fill="rgb(158,213,226)" stroke="rgb(158,213,226)" stroke-width="1" opacity="0.996078431372549" d="M 131.5 126 L 132.5 128 L 131.5 126 Z " /><path fill="rgb(158,213,226)" stroke="rgb(158,213,226)" stroke-width="1" opacity="0.996078431372549" d="M 156.5 127 L 155.5 129 L 156.5 127 Z " /><path fill="rgb(158,213,226)" stroke="rgb(158,213,226)" stroke-width="1" opacity="0.996078431372549" d="M 95.5 128 L 96.5 130 L 95.5 128 Z " /><path fill="rgb(158,213,226)" stroke="rgb(158,213,226)" stroke-width="1" opacity="0.996078431372549" d="M 122.5 129 L 128 129 L 128 136.5 L 127 136.5 L 127 130 L 122.5 130 L 118.5 133 L 119.5 131 L 122.5 129 Z " /><path fill="rgb(158,213,226)" stroke="rgb(158,213,226)" stroke-width="1" opacity="0.996078431372549" d="M 136.5 129 L 140 130.5 L 138.5 130 Q 135.5 130.5 136.5 129 Z " /><path fill="rgb(158,213,226)" stroke="rgb(158,213,226)" stroke-width="1" opacity="0.996078431372549" d="M 192.5 130 L 194 132.5 L 192 133 L 192.5 130 Z " /><path fill="rgb(158,213,226)" stroke="rgb(158,213,226)" stroke-width="1" opacity="0.996078431372549" d="M 56.5 131 L 58 133.5 L 56 132.5 L 56.5 131 Z " /><path fill="rgb(158,213,226)" stroke="rgb(158,213,226)" stroke-width="1" opacity="0.996078431372549" d="M 129.5 131 L 132 132.5 L 130.5 132 L 129.5 131 Z " /><path fill="rgb(158,213,226)" stroke="rgb(158,213,226)" stroke-width="1" opacity="0.996078431372549" d="M 133.5 133 L 135.5 136 L 133.5 133 Z " /><path fill="rgb(158,213,226)" stroke="rgb(158,213,226)" stroke-width="1" opacity="0.996078431372549" d="M 142.5 135 Q 144.8 134.3 144 136.5 L 145.5 136 L 148 136.5 L 144.5 138 L 142.5 135 Z " /><path fill="rgb(158,213,226)" stroke="rgb(158,213,226)" stroke-width="1" opacity="0.996078431372549" d="M 54.5 136 L 55 137.5 L 53.5 140 L 53 138.5 L 54.5 136 Z " /><path fill="rgb(158,213,226)" stroke="rgb(158,213,226)" stroke-width="1" opacity="0.996078431372549" d="M 101.5 136 L 105 137.5 L 102 139.5 L 103.5 137 Q 100.5 137.5 101.5 136 Z " /><path fill="rgb(158,213,226)" stroke="rgb(158,213,226)" stroke-width="1" opacity="0.996078431372549" d="M 122.5 136 L 123 138.5 L 122 138.5 L 122.5 136 Z " /><path fill="rgb(158,213,226)" stroke="rgb(158,213,226)" stroke-width="1" opacity="0.996078431372549" d="M 137.5 136 L 140.5 140 L 137.5 136 Z " /><path fill="rgb(158,213,226)" stroke="rgb(158,213,226)" stroke-width="1" opacity="0.996078431372549" d="M 195.5 136 L 199 142.5 L 197 141.5 L 195.5 136 Z " /><path fill="rgb(158,213,226)" stroke="rgb(158,213,226)" stroke-width="1" opacity="0.996078431372549" d="M 90.5 138 L 94 138.5 L 90.5 139 L 90.5 138 Z " /><path fill="rgb(158,213,226)" stroke="rgb(158,213,226)" stroke-width="1" opacity="0.996078431372549" d="M 128.5 138 L 129 141.5 L 128 141.5 L 128.5 138 Z " /><path fill="rgb(158,213,226)" stroke="rgb(158,213,226)" stroke-width="1" opacity="0.996078431372549" d="M 155.5 138 L 158 138.5 L 155.5 139 L 155.5 138 Z " /><path fill="rgb(158,213,226)" stroke="rgb(158,213,226)" stroke-width="1" opacity="0.996078431372549" d="M 65.5 139 L 81 139.5 L 65.5 140 L 65.5 139 Z " /><path fill="rgb(158,213,226)" stroke="rgb(158,213,226)" stroke-width="1" opacity="0.996078431372549" d="M 83.5 139 L 86 139.5 L 83.5 140 L 83.5 139 Z " /><path fill="rgb(158,213,226)" stroke="rgb(158,213,226)" stroke-width="1" opacity="0.996078431372549" d="M 164.5 139 L 189 139.5 L 164.5 140 L 164.5 139 Z " /><path fill="rgb(158,213,226)" stroke="rgb(158,213,226)" stroke-width="1" opacity="0.996078431372549" d="M 97.5 140 L 97 141.5 Q 97.8 143.8 95.5 143 L 94.5 141 L 97.5 140 Z " /><path fill="rgb(158,213,226)" stroke="rgb(158,213,226)" stroke-width="1" opacity="0.996078431372549" d="M 121.5 140 L 122 144.5 L 121 144.5 L 121.5 140 Z " /><path fill="rgb(158,213,226)" stroke="rgb(158,213,226)" stroke-width="1" opacity="0.996078431372549" d="M 147.5 140 L 148.5 142 L 147.5 140 Z " /><path fill="rgb(158,213,226)" stroke="rgb(158,213,226)" stroke-width="1" opacity="0.996078431372549" d="M 100.5 141 L 100 142.5 Q 100.8 144.8 98.5 144 L 100.5 141 Z " /><path fill="rgb(158,213,226)" stroke="rgb(158,213,226)" stroke-width="1" opacity="0.996078431372549" d="M 152.5 141 Q 156.3 140.3 157 142.5 L 156 143.5 L 157.5 146 L 152.5 141 Z " /><path fill="rgb(158,213,226)" stroke="rgb(158,213,226)" stroke-width="1" opacity="0.996078431372549" d="M 51.5 142 L 51 143.5 L 48.5 148 L 49 146.5 L 51.5 142 Z " /><path fill="rgb(158,213,226)" stroke="rgb(158,213,226)" stroke-width="1" opacity="0.996078431372549" d="M 108.5 142 L 109 145.5 L 108 145.5 L 108.5 142 Z " /><path fill="rgb(158,213,226)" stroke="rgb(158,213,226)" stroke-width="1" opacity="0.996078431372549" d="M 159.5 143 L 160.5 145 L 159.5 143 Z " /><path fill="rgb(158,213,226)" stroke="rgb(158,213,226)" stroke-width="1" opacity="0.996078431372549" d="M 92.5 144 L 89.5 148 L 88 147.5 L 92.5 144 Z " /><path fill="rgb(158,213,226)" stroke="rgb(158,213,226)" stroke-width="1" opacity="0.996078431372549" d="M 199.5 144 L 202 147.5 L 199 145.5 L 199.5 144 Z " /><path fill="rgb(158,213,226)" stroke="rgb(158,213,226)" stroke-width="1" opacity="0.996078431372549" d="M 83.5 145 L 86 145.5 L 81.5 147 L 81.5 146 L 83.5 145 Z " /><path fill="rgb(158,213,226)" stroke="rgb(158,213,226)" stroke-width="1" opacity="0.996078431372549" d="M 97.5 145 L 96.5 147 L 97.5 145 Z " /><path fill="rgb(158,213,226)" stroke="rgb(158,213,226)" stroke-width="1" opacity="0.996078431372549" d="M 124.5 145 L 126 149.5 L 124 148.5 L 124 146.5 L 124.5 145 Z " /><path fill="rgb(158,213,226)" stroke="rgb(158,213,226)" stroke-width="1" opacity="0.996078431372549" d="M 152.5 146 L 160 155.5 L 157 153.5 L 152.5 146 Z " /><path fill="rgb(158,213,226)" stroke="rgb(158,213,226)" stroke-width="1" opacity="0.996078431372549" d="M 130.5 147 L 136 151.5 L 134.5 151 L 130.5 147 Z " /><path fill="rgb(158,213,226)" stroke="rgb(158,213,226)" stroke-width="1" opacity="0.996078431372549" d="M 72.5 148 L 76 148.5 L 72.5 149 L 72.5 148 Z " /><path fill="rgb(158,213,226)" stroke="rgb(158,213,226)" stroke-width="1" opacity="0.996078431372549" d="M 95.5 148 L 94.5 150 L 95.5 148 Z " /><path fill="rgb(158,213,226)" stroke="rgb(158,213,226)" stroke-width="1" opacity="0.996078431372549" d="M 118.5 148 L 116.5 151 L 118.5 148 Z " /><path fill="rgb(158,213,226)" stroke="rgb(158,213,226)" stroke-width="1" opacity="0.996078431372549" d="M 161.5 148 L 162.5 150 L 161.5 148 Z " /><path fill="rgb(158,213,226)" stroke="rgb(158,213,226)" stroke-width="1" opacity="0.996078431372549" d="M 173.5 148 L 176 148.5 L 173.5 149 L 173.5 148 Z " /><path fill="rgb(158,213,226)" stroke="rgb(158,213,226)" stroke-width="1" opacity="0.996078431372549" d="M 64.5 149 L 71 149.5 L 64.5 150 L 64.5 149 Z " /><path fill="rgb(158,213,226)" stroke="rgb(158,213,226)" stroke-width="1" opacity="0.996078431372549" d="M 86.5 149 L 82.5 154 L 86.5 149 Z " /><path fill="rgb(158,213,226)" stroke="rgb(158,213,226)" stroke-width="1" opacity="0.996078431372549" d="M 142.5 149 L 143 156 L 137 152.5 L 138.5 153 L 141.5 155 L 142.5 149 Z " /><path fill="rgb(158,213,226)" stroke="rgb(158,213,226)" stroke-width="1" opacity="0.996078431372549" d="M 178.5 149 L 184 149.5 L 178.5 150 L 178.5 149 Z " /><path fill="rgb(158,213,226)" stroke="rgb(158,213,226)" stroke-width="1" opacity="0.996078431372549" d="M 164.5 150 L 168.5 155 L 164 152 L 164.5 150 Z " /><path fill="rgb(158,213,226)" stroke="rgb(158,213,226)" stroke-width="1" opacity="0.996078431372549" d="M 189.5 150 L 192 150.5 L 189.5 151 L 189.5 150 Z " /><path fill="rgb(158,213,226)" stroke="rgb(158,213,226)" stroke-width="1" opacity="0.996078431372549" d="M 46.5 151 L 45.5 153 L 46.5 151 Z " /><path fill="rgb(158,213,226)" stroke="rgb(158,213,226)" stroke-width="1" opacity="0.996078431372549" d="M 203.5 151 L 206 155.5 L 205 155.5 L 203.5 151 Z " /><path fill="rgb(158,213,226)" stroke="rgb(158,213,226)" stroke-width="1" opacity="0.996078431372549" d="M 92.5 152 L 92 153.5 L 91.5 155 L 91 153.5 L 92.5 152 Z " /><path fill="rgb(158,213,226)" stroke="rgb(158,213,226)" stroke-width="1" opacity="0.996078431372549" d="M 112.5 152 L 110.5 155 L 112.5 152 Z " /><path fill="rgb(158,213,226)" stroke="rgb(158,213,226)" stroke-width="1" opacity="0.996078431372549" d="M 44.5 154 L 43.5 156 L 44.5 154 Z " /><path fill="rgb(158,213,226)" stroke="rgb(158,213,226)" stroke-width="1" opacity="0.996078431372549" d="M 107.5 154 L 108.5 156 Q 105.7 156.7 107.5 154 Z " /><path fill="rgb(158,213,226)" stroke="rgb(158,213,226)" stroke-width="1" opacity="0.996078431372549" d="M 124.5 156 L 126 162.5 L 125 162.5 L 124.5 156 Z " /><path fill="rgb(158,213,226)" stroke="rgb(158,213,226)" stroke-width="1" opacity="0.996078431372549" d="M 42.5 157 L 43 158.5 L 40 160.5 L 42.5 157 Z " /><path fill="rgb(158,213,226)" stroke="rgb(158,213,226)" stroke-width="1" opacity="0.996078431372549" d="M 89.5 157 L 88.5 159 L 89.5 157 Z " /><path fill="rgb(158,213,226)" stroke="rgb(158,213,226)" stroke-width="1" opacity="0.996078431372549" d="M 207.5 157 L 209 159.5 L 207 158.5 L 207.5 157 Z " /><path fill="rgb(158,213,226)" stroke="rgb(158,213,226)" stroke-width="1" opacity="0.996078431372549" d="M 77.5 158 L 78 159.5 L 72.5 166 L 73 164.5 L 77.5 158 Z " /><path fill="rgb(158,213,226)" stroke="rgb(158,213,226)" stroke-width="1" opacity="0.996078431372549" d="M 171.5 158 L 174.5 162 L 171.5 158 Z " /><path fill="rgb(158,213,226)" stroke="rgb(158,213,226)" stroke-width="1" opacity="0.996078431372549" d="M 120.5 159 L 121 160.5 L 119.5 163 L 119 161.5 L 120.5 159 Z " /><path fill="rgb(158,213,226)" stroke="rgb(158,213,226)" stroke-width="1" opacity="0.996078431372549" d="M 129.5 159 L 130 161.5 L 129 161.5 L 129.5 159 Z " /><path fill="rgb(158,213,226)" stroke="rgb(158,213,226)" stroke-width="1" opacity="0.996078431372549" d="M 161.5 159 L 166 166.5 L 164 165.5 L 161.5 159 Z " /><path fill="rgb(158,213,226)" stroke="rgb(158,213,226)" stroke-width="1" opacity="0.996078431372549" d="M 56.5 160 L 57 161.5 L 55 162.5 L 56.5 160 Z " /><path fill="rgb(158,213,226)" stroke="rgb(158,213,226)" stroke-width="1" opacity="0.996078431372549" d="M 87.5 160 L 87 161.5 L 86.5 163 L 86 161.5 L 87.5 160 Z " /><path fill="rgb(158,213,226)" stroke="rgb(158,213,226)" stroke-width="1" opacity="0.996078431372549" d="M 209.5 161 L 210.5 163 L 209.5 161 Z " /><path fill="rgb(158,213,226)" stroke="rgb(158,213,226)" stroke-width="1" opacity="0.996078431372549" d="M 39.5 162 L 39 163.5 L 35.5 168 L 38 164.5 L 39.5 162 Z " /><path fill="rgb(158,213,226)" stroke="rgb(158,213,226)" stroke-width="1" opacity="0.996078431372549" d="M 130.5 163 L 131.5 165 L 130.5 163 Z " /><path fill="rgb(158,213,226)" stroke="rgb(158,213,226)" stroke-width="1" opacity="0.996078431372549" d="M 175.5 163 L 176.5 165 L 175.5 163 Z " /><path fill="rgb(158,213,226)" stroke="rgb(158,213,226)" stroke-width="1" opacity="0.996078431372549" d="M 85.5 164 L 85 165.5 L 82.5 171 L 82 169.5 L 85.5 164 Z " /><path fill="rgb(158,213,226)" stroke="rgb(158,213,226)" stroke-width="1" opacity="0.996078431372549" d="M 118.5 164 L 118 165.5 L 114.5 172 L 115 170.5 L 118.5 164 Z " /><path fill="rgb(158,213,226)" stroke="rgb(158,213,226)" stroke-width="1" opacity="0.996078431372549" d="M 123.5 164 L 124 166.5 L 123 166.5 L 123.5 164 Z " /><path fill="rgb(158,213,226)" stroke="rgb(158,213,226)" stroke-width="1" opacity="0.996078431372549" d="M 211.5 164 L 212.5 166 L 211.5 164 Z " /><path fill="rgb(158,213,226)" stroke="rgb(158,213,226)" stroke-width="1" opacity="0.996078431372549" d="M 60.5 166 L 65 167.5 L 62.5 168 L 60.5 166 Z " /><path fill="rgb(158,213,226)" stroke="rgb(158,213,226)" stroke-width="1" opacity="0.996078431372549" d="M 177.5 166 L 179.5 169 L 177.5 166 Z " /><path fill="rgb(158,213,226)" stroke="rgb(158,213,226)" stroke-width="1" opacity="0.996078431372549" d="M 189.5 166 L 192 166.5 L 189.5 167 L 189.5 166 Z " /><path fill="rgb(158,213,226)" stroke="rgb(158,213,226)" stroke-width="1" opacity="0.996078431372549" d="M 71.5 167 L 70.5 169 L 71.5 167 Z " /><path fill="rgb(158,213,226)" stroke="rgb(158,213,226)" stroke-width="1" opacity="0.996078431372549" d="M 185.5 167 L 188 167.5 L 185.5 168 L 185.5 167 Z " /><path fill="rgb(158,213,226)" stroke="rgb(158,213,226)" stroke-width="1" opacity="0.996078431372549" d="M 213.5 167 L 217 171.5 L 215 170.5 L 213.5 167 Z " /><path fill="rgb(158,213,226)" stroke="rgb(158,213,226)" stroke-width="1" opacity="0.996078431372549" d="M 133.5 168 L 135 170.5 L 133 169.5 L 133.5 168 Z " /><path fill="rgb(158,213,226)" stroke="rgb(158,213,226)" stroke-width="1" opacity="0.996078431372549" d="M 166.5 168 L 168 170.5 L 167 170.5 L 166.5 168 Z " /><path fill="rgb(158,213,226)" stroke="rgb(158,213,226)" stroke-width="1" opacity="0.996078431372549" d="M 183.5 168 L 182.5 170 L 183.5 168 Z " /><path fill="rgb(158,213,226)" stroke="rgb(158,213,226)" stroke-width="1" opacity="0.996078431372549" d="M 34.5 169 L 35 170.5 L 27.5 180 L 29 177.5 L 34.5 169 Z " /><path fill="rgb(158,213,226)" stroke="rgb(158,213,226)" stroke-width="1" opacity="0.996078431372549" d="M 122.5 169 L 123 172.5 L 122 172.5 L 122.5 169 Z " /><path fill="rgb(158,213,226)" stroke="rgb(158,213,226)" stroke-width="1" opacity="0.996078431372549" d="M 81.5 172 L 81 173.5 L 80 175.5 L 81.5 178 Q 77.3 176.3 80 174.5 L 81.5 172 Z " /><path fill="rgb(158,213,226)" stroke="rgb(158,213,226)" stroke-width="1" opacity="0.996078431372549" d="M 135.5 172 L 141 180.5 L 138 178.5 L 135.5 172 Z " /><path fill="rgb(158,213,226)" stroke="rgb(158,213,226)" stroke-width="1" opacity="0.996078431372549" d="M 128.5 174 L 129 177.5 L 128 177.5 L 128.5 174 Z " /><path fill="rgb(158,213,226)" stroke="rgb(158,213,226)" stroke-width="1" opacity="0.996078431372549" d="M 169.5 176 L 167.5 179 L 166 179.5 L 168 180.5 L 164.5 181 L 166.5 178 L 169.5 176 Z " /><path fill="rgb(158,213,226)" stroke="rgb(158,213,226)" stroke-width="1" opacity="0.996078431372549" d="M 84.5 179 L 85.5 181 Q 82.7 181.7 84.5 179 Z " /><path fill="rgb(158,213,226)" stroke="rgb(158,213,226)" stroke-width="1" opacity="0.996078431372549" d="M 38.5 180 L 51 180.5 L 38.5 181 L 38.5 180 Z " /><path fill="rgb(158,213,226)" stroke="rgb(158,213,226)" stroke-width="1" opacity="0.996078431372549" d="M 169.5 180 L 173 180.5 L 169.5 181 L 169.5 180 Z " /><path fill="rgb(158,213,226)" stroke="rgb(158,213,226)" stroke-width="1" opacity="0.996078431372549" d="M 191.5 180 L 208 180.5 L 191.5 181 L 191.5 180 Z " /><path fill="rgb(158,213,226)" stroke="rgb(158,213,226)" stroke-width="1" opacity="0.996078431372549" d="M 28.5 181 L 35 181.5 L 28.5 182 L 28.5 181 Z " /><path fill="rgb(158,213,226)" stroke="rgb(158,213,226)" stroke-width="1" opacity="0.996078431372549" d="M 212.5 181 L 218 181.5 L 212.5 182 L 212.5 181 Z " /><path fill="rgb(158,213,226)" stroke="rgb(158,213,226)" stroke-width="1" opacity="0.996078431372549" d="M 108.5 182 L 107.5 184 L 108.5 182 Z " /><path fill="rgb(158,213,226)" stroke="rgb(158,213,226)" stroke-width="1" opacity="0.996078431372549" d="M 130.5 182 L 133 187.5 L 132 187.5 L 130.5 182 Z " /><path fill="rgb(158,213,226)" stroke="rgb(158,213,226)" stroke-width="1" opacity="0.996078431372549" d="M 118.5 184 L 119 185.5 L 117.5 188 L 117 186.5 L 118.5 184 Z " /><path fill="rgb(158,213,226)" stroke="rgb(158,213,226)" stroke-width="1" opacity="0.996078431372549" d="M 106.5 185 L 105 187.5 L 103.5 190 L 102 189.5 L 104 189 L 106.5 185 Z " /><path fill="rgb(158,213,226)" stroke="rgb(158,213,226)" stroke-width="1" opacity="0.996078431372549" d="M 96.5 186 L 97.5 188 L 99 187.5 Q 97.5 190.5 96 187.5 L 96.5 186 Z " /><path fill="rgb(158,213,226)" stroke="rgb(158,213,226)" stroke-width="1" opacity="0.996078431372549" d="M 153.5 186 L 154 187.5 L 149.5 193 L 150 191.5 L 152 188.5 L 151.5 187 L 153 187.5 L 153.5 186 Z " /><path fill="rgb(158,213,226)" stroke="rgb(158,213,226)" stroke-width="1" opacity="0.996078431372549" d="M 145.5 188 L 148 189.5 L 146.5 190 L 145.5 188 Z " /><path fill="rgb(158,213,226)" stroke="rgb(158,213,226)" stroke-width="1" opacity="0.996078431372549" d="M 98.5 190 L 102 194.5 L 100 193.5 L 98.5 190 Z " /><path fill="rgb(158,213,226)" stroke="rgb(158,213,226)" stroke-width="1" opacity="0.996078431372549" d="M 133.5 190 L 137 195.5 L 132.5 199 L 134.5 196 L 136 195.5 L 133.5 190 Z " /><path fill="rgb(158,213,226)" stroke="rgb(158,213,226)" stroke-width="1" opacity="0.996078431372549" d="M 115.5 191 L 115 192.5 L 114.5 194 L 114 192.5 L 115.5 191 Z " /><path fill="rgb(158,213,226)" stroke="rgb(158,213,226)" stroke-width="1" opacity="0.996078431372549" d="M 148.5 194 L 147 196.5 L 144.5 201 L 145 199.5 L 148.5 194 Z " /><path fill="rgb(158,213,226)" stroke="rgb(158,213,226)" stroke-width="1" opacity="0.996078431372549" d="M 113.5 195 L 114.5 197 L 113.5 195 Z " /><path fill="rgb(158,213,226)" stroke="rgb(158,213,226)" stroke-width="1" opacity="0.996078431372549" d="M 102.5 196 L 105 199.5 L 104 199.5 L 102.5 196 Z " /><path fill="rgb(158,213,226)" stroke="rgb(158,213,226)" stroke-width="1" opacity="0.996078431372549" d="M 116.5 197 L 119.5 201 L 116.5 197 Z " /><path fill="rgb(158,213,226)" stroke="rgb(158,213,226)" stroke-width="1" opacity="0.996078431372549" d="M 130.5 199 L 127 203.5 L 125.5 206 L 122 203.5 L 124.5 205 Q 126.8 205.8 126 203.5 L 130.5 199 Z " /><path fill="rgb(158,213,226)" stroke="rgb(158,213,226)" stroke-width="1" opacity="0.996078431372549" d="M 107.5 204 L 109 206.5 L 108 206.5 L 107.5 204 Z " /><path fill="rgb(158,213,226)" stroke="rgb(158,213,226)" stroke-width="1" opacity="0.996078431372549" d="M 140.5 207 L 141 208.5 L 139 209.5 L 140.5 207 Z " /><path fill="rgb(158,213,226)" stroke="rgb(158,213,226)" stroke-width="1" opacity="0.996078431372549" d="M 110.5 210 L 113 214.5 L 112 214.5 L 110.5 210 Z " /><path fill="rgb(158,213,226)" stroke="rgb(158,213,226)" stroke-width="1" opacity="0.996078431372549" d="M 138.5 211 L 138 212.5 L 137.5 214 L 137 212.5 L 138.5 211 Z " /><path fill="rgb(158,213,226)" stroke="rgb(158,213,226)" stroke-width="1" opacity="0.996078431372549" d="M 135.5 217 L 135 218.5 L 133.5 222 L 133 220.5 L 135.5 217 Z " /><path fill="rgb(158,213,226)" stroke="rgb(158,213,226)" stroke-width="1" opacity="0.996078431372549" d="M 116.5 220 L 119 225.5 L 117 224.5 L 116.5 220 Z " /><path fill="rgb(158,213,226)" stroke="rgb(158,213,226)" stroke-width="1" opacity="0.996078431372549" d="M 132.5 223 L 132 224.5 L 129.5 230 L 129 228.5 L 132.5 223 Z " /><path fill="rgb(158,213,226)" stroke="rgb(158,213,226)" stroke-width="1" opacity="0.996078431372549" d="M 122.5 234 L 123.5 236 L 122.5 234 Z " /><path fill="rgb(158,213,226)" stroke="rgb(158,213,226)" stroke-width="1" opacity="0.996078431372549" d="M 124 237 Q 127 236 126 239 Q 123 240 124 237 Z " /><path fill="rgb(159,214,227)" stroke="rgb(159,214,227)" stroke-width="1" opacity="1" d="M 125.5 12 L 129 21 L 131 21.5 L 131 23.5 L 133 30 L 135 30 Q 133.7 34.1 137 33 L 137 36.5 L 142.5 46 Q 145.1 45.2 144 48.5 L 146.5 53 Q 149.1 52.2 148 55.5 L 153 62.5 L 151.5 62 L 146.5 60 L 141 67.5 L 140 72 L 137 73.5 L 132 83.5 L 132.5 85 Q 130.3 84.3 131 86.5 L 130.5 89 Q 127.5 88.1 129 92.5 L 126 98.5 L 126.5 100 Q 122.8 101.3 124 97.5 L 122 93.5 L 120 90.5 L 121 88.5 L 120 86 Q 117 87.3 118 83.5 L 114 75 L 112 74.5 L 112 72.5 L 109 67 L 107 66.5 L 107.5 65 Q 105.3 65.8 106 63.5 L 104 60 L 100 61 L 99.5 63 L 97 62.5 L 113 37.5 L 118 24.5 L 121 21.5 L 125.5 12 Z M 124 44 L 122 48 Q 123 50 120 49 L 120 51 L 118 51 L 113 55 L 121 71 L 121 76 L 123 80 L 124 91 L 126 93 L 129 72 L 136 56 Q 138 54 136 53 Q 132 54 133 52 L 130 49 L 128 47 L 124 44 Z " /><path fill="rgb(159,214,227)" stroke="rgb(159,214,227)" stroke-width="1" opacity="1" d="M 27 68 L 33.5 69 L 35.5 69 L 45.5 70 L 48.5 69 L 53.5 70 L 55.5 70 L 76.5 70 L 77.5 69 L 80.5 70 L 82.5 70 L 84 70.5 L 80 73.5 L 86 87.5 L 91.5 96 Q 94.1 95.2 93 98.5 L 104 112.5 L 100.5 113 L 95.5 111 L 85.5 110 L 83.5 110 L 80.5 111 L 79.5 110 L 64.5 110 L 62.5 110 L 58 111 L 58 117 L 56 117 L 55 112.5 L 47 98 L 45 97.5 L 45 95.5 Q 45.7 92.9 43 94 L 43 91.5 L 33 76 L 30 74.5 L 31 73.5 L 27 69.5 L 27 68 Z M 68 80 L 66 82 L 55 84 L 57 91 L 57 93 L 58 97 L 58 99 L 59 100 L 67 100 L 69 100 L 75 102 L 77 101 L 87 105 Q 91 104 90 107 L 95 109 L 98 109 L 88 100 Q 85 101 86 98 L 83 98 L 83 96 L 81 96 L 73 84 L 70 80 L 68 80 Z " /><path fill="rgb(159,214,227)" stroke="rgb(159,214,227)" stroke-width="1" opacity="1" d="M 215.5 68 L 221.5 69 L 223 68.5 L 212 84.5 L 212 87 Q 209.3 85.9 210 88.5 L 204 96.5 L 192.5 118 L 193 116.5 L 192 111 L 174.5 110 L 172.5 110 L 167.5 111 L 164.5 110 L 163.5 111 L 151.5 112 L 148.5 114 L 146.5 113 L 144.5 114 L 144.5 113 L 148 110.5 Q 147.3 108.3 149.5 109 L 159 96.5 L 160 92 Q 162.7 93.1 162 90.5 L 168 80.5 L 168 77 Q 170.7 78.1 170 75.5 L 170.5 74 Q 168.3 74.8 169 72.5 L 166 70.5 L 203.5 70 L 205.5 69 L 208.5 70 L 215.5 68 Z M 181 80 L 169 96 L 152 109 L 153 110 L 163 105 L 167 105 L 173 102 L 183 101 L 185 101 L 192 100 L 192 95 L 195 84 L 191 83 L 189 84 L 181 80 Z " /><path fill="rgb(159,214,227)" stroke="rgb(159,214,227)" stroke-width="1" opacity="1" d="M 141.5 96 L 143 97.5 L 142 100.5 L 142 106.5 L 140 113 L 127 122.5 L 129 123 Q 127.7 126.3 132.5 125 L 140.5 120 L 142.5 121 L 147.5 120 L 150.5 121 L 156.5 125 L 160 125.5 L 154.5 129 L 152 129 L 151.5 131 L 149.5 131 L 143.5 132 L 141.5 132 L 138.5 129 Q 132.9 129.6 131.5 126 Q 129 130.3 122 129 L 120.5 126 L 112 129 Q 113.3 132.7 107.5 131 L 102.5 132 L 91 125.5 L 99.5 121 L 107.5 120 L 115.5 124 L 122 125 L 123.5 122 Q 127.3 122.8 128 120.5 L 127 116.5 Q 130 113.5 129 106.5 L 134.5 101 L 141.5 96 Z " /><path fill="rgb(159,214,227)" stroke="rgb(159,214,227)" stroke-width="1" opacity="1" d="M 108 97 L 113 98 Q 111.9 100.7 114.5 100 L 120 103.5 Q 117.5 105 121 106.5 Q 120.4 111.1 123 112.5 L 122 117.5 L 123 121 L 112 115 L 108 109.5 Q 110.3 108.3 109 103.5 L 108 97 Z " /><path fill="rgb(159,214,227)" stroke="rgb(159,214,227)" stroke-width="1" opacity="1" d="M 125.5 102 L 124.5 104 L 125.5 102 Z " /><path fill="rgb(159,214,227)" stroke="rgb(159,214,227)" stroke-width="1" opacity="1" d="M 122.5 130 L 123 132.5 L 123 134.5 L 120 148 L 114 151 L 113.5 153 L 112.5 152 L 109.5 155 L 108 154.5 L 108 146.5 L 109 140 L 111 140 Q 109.5 136.3 112.5 137 Q 113.6 134.3 117 135 Q 115.9 132.3 118.5 133 L 122.5 130 Z " /><path fill="rgb(159,214,227)" stroke="rgb(159,214,227)" stroke-width="1" opacity="1" d="M 128 130 L 130 130.5 L 129.5 132 L 131.5 133 L 133 132.5 L 135.5 136 L 137 135.5 L 142 141.5 L 141 143.5 L 143 148.5 L 141.5 155 L 137.5 152 L 136 152.5 L 134.5 150 L 130 146.5 L 128 142.5 L 129 138.5 L 128 137.5 L 128 130 Z " /><path fill="rgb(159,214,227)" stroke="rgb(159,214,227)" stroke-width="1" opacity="1" d="M 56.5 133 Q 59.3 134.4 58 139 L 64.5 139 L 65.5 140 L 80.5 140 L 82.5 139 L 85.5 140 L 105.5 136 L 105.5 137 L 102 139.5 Q 102.8 141.8 100.5 141 Q 96.8 143 98.5 145 L 96 146.5 L 94 152 L 91 153.5 L 79 175.5 Q 80.2 178.8 84 178 L 83.5 181 L 81.5 180 L 79.5 180 L 52.5 180 L 51.5 181 L 50.5 180 L 38.5 180 L 27.5 182 L 27 180.5 L 47 151.5 L 46.5 150 Q 48.8 150.8 48 148.5 Q 52.6 145.8 52 140 Q 54.7 141.1 54 138.5 L 56.5 133 Z M 95 141 L 97 143 Q 98 140 95 141 Z M 93 142 L 88 145 L 84 145 L 78 148 L 58 150 Q 59 157 56 162 L 56 164 L 55 166 L 60 166 L 69 170 L 71 169 L 78 160 L 78 157 Q 81 158 80 156 L 87 150 Q 86 147 90 148 L 94 143 L 93 142 Z " /><path fill="rgb(159,214,227)" stroke="rgb(159,214,227)" stroke-width="1" opacity="1" d="M 192 133 Q 194.7 131.9 194 134.5 L 205 156 Q 208 154.8 207 158.5 L 210.5 163 L 212 163.5 Q 209.5 165 213 166.5 L 217 174 L 219 174 L 219 177 Q 221.7 175.9 221 178.5 L 223 182 L 217.5 181 L 208.5 181 L 207.5 180 L 169.5 180 L 167.5 180 L 166 179.5 L 170 176.5 L 168 169.5 L 161 157 L 159 156.5 Q 161.5 155 158 153.5 L 152 144 L 149 142.5 L 147 138 L 144 136.5 L 145.5 137 L 150.5 138 L 152.5 138 L 162.5 140 L 164.5 140 L 188.5 140 L 192 139 L 192 133 Z M 153 141 Q 154 145 160 146 L 163 150 Q 165 149 164 152 L 170 155 L 175 164 L 178 165 L 177 167 L 181 170 L 183 170 L 185 168 Q 192 168 195 165 L 193 162 L 191 152 L 192 150 L 189 151 L 184 149 L 177 149 L 162 145 Q 160 141 159 144 Q 158 140 153 141 Z " /><path fill="rgb(159,214,227)" stroke="rgb(159,214,227)" stroke-width="1" opacity="1" d="M 125.5 146 L 124.5 148 L 125.5 146 Z " /><path fill="rgb(159,214,227)" stroke="rgb(159,214,227)" stroke-width="1" opacity="1" d="M 124.5 149 L 129 158.5 L 129 162 L 131 162.5 L 130 163.5 L 133 166.5 L 133 169.5 L 141 183 L 143 183.5 L 142.5 185 Q 144.8 184.3 144 186.5 L 146.5 190 L 152.5 187 L 150 190.5 L 143 202.5 L 143 205 L 141 205.5 L 141.5 207 Q 139.3 206.3 140 208.5 L 129 228.5 L 126 237 L 123 236.5 Q 125.5 235 122 233.5 L 121 229 L 119 228.5 L 119 226.5 L 117 220 L 115 220 Q 116.3 215.9 113 217 L 113 213.5 L 107.5 204 Q 104.9 204.8 106 201.5 L 97 187.5 L 98.5 188 L 103.5 190 L 109 182.5 L 108.5 181 Q 111.1 181.8 110 178.5 L 119 164.5 L 118.5 163 Q 120.8 163.8 120 161.5 L 124.5 149 Z M 125 156 L 124 164 L 121 175 L 122 177 L 113 196 L 121 201 L 122 204 L 126 206 L 127 204 L 137 196 L 135 192 L 132 189 L 133 188 L 129 180 Q 130 173 128 174 L 128 173 L 125 156 Z " /></svg>